<svg id="kity_svg_6" xmlns="http://www.w3.org/2000/svg" xmlns:xlink="http://www.w3.org/1999/xlink" version="1.1" width="3085" height="715" style="background: rgb(251, 251, 251); visibility: visible;" viewBox="0 0 3085 715"><defs id="kity_defs_7"><linearGradient id="kity_linearGradient_17" x1="0" y1="0" x2="0" y2="1"><stop id="kity_stop_18" offset="0" stop-color="rgb(255, 255, 255)"></stop><stop id="kity_stop_19" offset="1" stop-color="rgb(204, 204, 204)"></stop></linearGradient><marker id="kity_marker_2" orient="auto" refX="6" refY="0" viewBox="-7 -7 14 14" markerWidth="7" markerHeight="7" markerUnits="userSpaceOnUse"><path id="kity_path_3" fill="rgb(115, 161, 191)" stroke="none" d="M6,0A6,6,0,1,1,-6,0A6,6,0,1,1,6,0"></path></marker></defs><g id="kity_g_8"><g id="minder1" text-rendering="optimize-speed"><g id="minder_connect_group1"><path id="kity_path_31" fill="none" stroke="rgb(115, 161, 191)" stroke-width="1" d="M1062.5,60.5v30h-735.5V110.5"></path><path id="kity_path_33" fill="none" stroke="rgb(115, 161, 191)" stroke-width="1" d="M327.5,136.5v20h0.5V171.5"></path><path id="kity_path_35" fill="none" stroke="rgb(115, 161, 191)" stroke-width="1" d="M327.5,193.5v15h0.5V223.5"></path><path id="kity_path_37" fill="none" stroke="rgb(115, 161, 191)" stroke-width="1" d="M328.5,245.5v15h-169.5V275.5"></path><path id="kity_path_39" fill="none" stroke="rgb(115, 161, 191)" stroke-width="1" d="M328.5,245.5v15h158.5V275.5"></path><path id="kity_path_41" fill="none" stroke="rgb(115, 161, 191)" stroke-width="1" d="M1062.5,60.5v30h799V110.5"></path><path id="kity_path_43" fill="none" stroke="rgb(115, 161, 191)" stroke-width="1" d="M1861.5,136.5v20h0V171.5"></path><path id="kity_path_45" fill="none" stroke="rgb(115, 161, 191)" stroke-width="1" d="M1861.5,193.5v15h0V223.5"></path><path id="kity_path_47" fill="none" stroke="rgb(115, 161, 191)" stroke-width="1" d="M1861.5,250.5v15h-1108.5V280.5"></path><path id="kity_path_49" fill="none" stroke="rgb(115, 161, 191)" stroke-width="1" d="M753.5,302.5v15h0V332.5"></path><path id="kity_path_51" fill="none" stroke="rgb(115, 161, 191)" stroke-width="1" d="M1861.5,250.5v15h-855.5V280.5"></path><path id="kity_path_53" fill="none" stroke="rgb(115, 161, 191)" stroke-width="1" d="M1006.5,302.5v15h0.5V332.5"></path><path id="kity_path_55" fill="none" stroke="rgb(115, 161, 191)" stroke-width="1" d="M1861.5,250.5v15h-360.5V280.5"></path><path id="kity_path_57" fill="none" stroke="rgb(115, 161, 191)" stroke-width="1" d="M1501.5,302.5v15h0.5V332.5"></path><path id="kity_path_59" fill="none" stroke="rgb(115, 161, 191)" stroke-width="1" d="M1501.5,354.5v15h0V384.5"></path><path id="kity_path_61" fill="none" stroke="rgb(115, 161, 191)" stroke-width="1" d="M1501.5,406.5v15h-172.5V436.5"></path><path id="kity_path_63" fill="none" stroke="rgb(115, 161, 191)" stroke-width="1" d="M1329.5,458.5v15h0V488.5"></path><path id="kity_path_65" fill="none" stroke="rgb(115, 161, 191)" stroke-width="1" d="M1501.5,406.5v15h234V436.5"></path><path id="kity_path_67" fill="none" stroke="rgb(115, 161, 191)" stroke-width="1" d="M1735.5,458.5v15h0.5V488.5"></path><path id="kity_path_69" fill="none" stroke="rgb(115, 161, 191)" stroke-width="1" d="M1736.5,510.5v15h0.5V540.5"></path><path id="kity_path_71" fill="none" stroke="rgb(115, 161, 191)" stroke-width="1" d="M1736.5,562.5v15h0V592.5"></path><path id="kity_path_73" fill="none" stroke="rgb(115, 161, 191)" stroke-width="1" d="M1736.5,614.5v15h0V655.5"></path><path id="kity_path_75" fill="none" stroke="rgb(115, 161, 191)" stroke-width="1" d="M1861.5,250.5v15h436.5V280.5"></path><path id="kity_path_77" fill="none" stroke="rgb(115, 161, 191)" stroke-width="1" d="M2298.5,302.5v15h0.5V332.5"></path><path id="kity_path_79" fill="none" stroke="rgb(115, 161, 191)" stroke-width="1" d="M2298.5,354.5v15h0.5V384.5"></path><path id="kity_path_81" fill="none" stroke="rgb(115, 161, 191)" stroke-width="1" d="M2299.5,424.5v15h0.5V454.5"></path><path id="kity_path_83" fill="none" stroke="rgb(115, 161, 191)" stroke-width="1" d="M2299.5,476.5v15h0V506.5"></path><path id="kity_path_85" fill="none" stroke="rgb(115, 161, 191)" stroke-width="1" d="M2299.5,528.5v15h-203.5V558.5"></path><path id="kity_path_87" fill="none" stroke="rgb(115, 161, 191)" stroke-width="1" d="M2096.5,580.5v15h0.5V610.5"></path><path id="kity_path_89" fill="none" stroke="rgb(115, 161, 191)" stroke-width="1" d="M2299.5,528.5v15h23V558.5"></path><path id="kity_path_91" fill="none" stroke="rgb(115, 161, 191)" stroke-width="1" d="M2299.5,528.5v15h227V558.5"></path><path id="kity_path_93" fill="none" stroke="rgb(115, 161, 191)" stroke-width="1" d="M1861.5,250.5v15h864V280.5"></path><path id="kity_path_95" fill="none" stroke="rgb(115, 161, 191)" stroke-width="1" d="M2725.5,302.5v15h0.5V332.5"></path><path id="kity_path_97" fill="none" stroke="rgb(115, 161, 191)" stroke-width="1" d="M1861.5,250.5v15h1095.5V280.5"></path><path id="kity_path_99" fill="none" stroke="rgb(115, 161, 191)" stroke-width="1" d="M2957.5,302.5v15h0.5V332.5"></path><path id="kity_path_101" fill="none" stroke="rgb(115, 161, 191)" stroke-width="1" d="M2957.5,354.5v15h0V384.5"></path></g><g id="minder_node1"><path id="node_outline1" fill="rgb(115, 161, 191)" stroke="rgb(57, 80, 96)" d="M969.5,20.5h186a5,5,0,0,1,5,5v30a5,5,0,0,1,-5,5h-186a5,5,0,0,1,-5,-5v-30a5,5,0,0,1,5,-5z" stroke-width="3"></path><g id="node_text1" fill="white"><text id="kity_text_22" text-rendering="inherit" font-size="16" dy=".8em" y="30.09999990463257" x="988.5">bin/swoft http:start</text></g></g><g id="kity_g_12"><path id="kity_path_13" fill="none" stroke="none" d="M988.5,40.5h0v0h0z"></path></g><g id="kity_g_14"><path id="kity_path_15" fill="none" stroke="none" d="M988.5,40.5h0v0h0z"></path><path id="kity_path_16" fill="none" stroke="none"></path></g><g id="minder_node2"><g id="node_expander5" style="cursor: pointer;"><path id="kity_path_233" fill="white" stroke="gray" d="M333,103.5A6,6,0,1,1,321,103.5A6,6,0,1,1,333,103.5"></path><path id="kity_path_234" fill="none" stroke="gray" d="M322.5,103.5L331.5,103.5"></path></g><path id="node_outline6" fill="rgb(238, 243, 246)" stroke="rgb(115, 161, 191)" d="M205.5,110.5h243a3,3,0,0,1,3,3v20a3,3,0,0,1,-3,3h-243a3,3,0,0,1,-3,-3v-20a3,3,0,0,1,3,-3z" stroke-width="1"></path><g id="node_text6" fill="black"><text id="kity_text_111" text-rendering="inherit" font-size="14" dy=".8em" y="114.40000009536743" x="222.5">$app =&#xa0;new \App\Application()</text></g></g><g id="minder_node3"><g id="node_expander4" style="cursor: pointer;"><path id="kity_path_230" fill="white" stroke="gray" d="M333.5,165.5A6,6,0,1,1,321.5,165.5A6,6,0,1,1,333.5,165.5"></path><path id="kity_path_231" fill="none" stroke="gray" d="M323,165.5L332,165.5"></path></g><path id="node_outline5" fill="none" stroke="none" d="M234.5,171.5h186a5,5,0,0,1,5,5v12a5,5,0,0,1,-5,5h-186a5,5,0,0,1,-5,-5v-12a5,5,0,0,1,5,-5z"></path><g id="node_text5" fill="black"><text id="kity_text_109" text-rendering="inherit" font-size="12" dy=".8em" y="174.70000004768372" x="239.5">SwoftApplication::__construct()</text></g></g><g id="minder_node4"><g id="node_expander3" style="cursor: pointer;"><path id="kity_path_227" fill="white" stroke="gray" d="M334,217.5A6,6,0,1,1,322,217.5A6,6,0,1,1,334,217.5"></path><path id="kity_path_228" fill="none" stroke="gray" d="M323.5,217.5L332.5,217.5"></path></g><path id="node_outline4" fill="none" stroke="none" d="M313.5,223.5h29a5,5,0,0,1,5,5v12a5,5,0,0,1,-5,5h-29a5,5,0,0,1,-5,-5v-12a5,5,0,0,1,5,-5z"></path><g id="node_text4" fill="black"><text id="kity_text_107" text-rendering="inherit" font-size="12" dy=".8em" y="226.70000004768372" x="318.5">init</text></g></g><g id="minder_node5"><g id="node_expander1" display="none" style="cursor: pointer;"><path id="kity_path_221" fill="white" stroke="gray" d="M164.5,269.5A6,6,0,1,1,152.5,269.5A6,6,0,1,1,164.5,269.5"></path><path id="kity_path_222" fill="none" stroke="gray"></path></g><path id="node_outline2" fill="none" stroke="none" d="M25.5,275.5h266a5,5,0,0,1,5,5v12a5,5,0,0,1,-5,5h-266a5,5,0,0,1,-5,-5v-12a5,5,0,0,1,5,-5z"></path><g id="node_text2" fill="black"><text id="kity_text_103" text-rendering="inherit" font-size="12" dy=".8em" y="278.7000000476837" x="30.5">$processor=new ApplicationProcessor($this)</text></g></g><g id="minder_node6"><g id="node_expander2" display="none" style="cursor: pointer;"><path id="kity_path_224" fill="white" stroke="gray" d="M492.5,269.5A6,6,0,1,1,480.5,269.5A6,6,0,1,1,492.5,269.5"></path><path id="kity_path_225" fill="none" stroke="gray"></path></g><path id="node_outline3" fill="none" stroke="none" d="M341.5,275.5h290a5,5,0,0,1,5,5v17a5,5,0,0,1,-5,5h-290a5,5,0,0,1,-5,-5v-17a5,5,0,0,1,5,-5z"></path><g id="node_text3" fill="black"><text id="kity_text_105" text-rendering="inherit" font-size="12" dy=".8em" y="280.7000000476837" x="346.5">$processor-&gt;addFirstProcessor($processors);</text></g><g id="kity_g_178" style="cursor: pointer;"><path id="kity_path_179" fill="none" stroke="none" d="M613,280h12a2,2,0,0,1,2,2v13a2,2,0,0,1,-2,2h-12a2,2,0,0,1,-2,-2v-13a2,2,0,0,1,2,-2z"></path><path id="kity_path_180" fill="black" stroke="none" d="M622,291H616V290h6L622,291L622,291zM622,289H616V288h6V289zM622,287H616V286h6V287zM621.5,293H615V284h8v7.5M622,294l2,-2V283H614v11"></path></g></g><g id="minder_node7"><g id="node_expander36" style="cursor: pointer;"><path id="kity_path_326" fill="white" stroke="gray" d="M1867.5,103.5A6,6,0,1,1,1855.5,103.5A6,6,0,1,1,1867.5,103.5"></path><path id="kity_path_327" fill="none" stroke="gray" d="M1857,103.5L1866,103.5"></path></g><path id="node_outline37" fill="rgb(238, 243, 246)" stroke="rgb(115, 161, 191)" d="M1803.5,110.5h116a3,3,0,0,1,3,3v20a3,3,0,0,1,-3,3h-116a3,3,0,0,1,-3,-3v-20a3,3,0,0,1,3,-3z" stroke-width="1"></path><g id="node_text37" fill="black"><text id="kity_text_177" text-rendering="inherit" font-size="14" dy=".8em" y="114.40000009536743" x="1820.5">$app-&gt;run()</text></g></g><g id="minder_node8"><g id="node_expander35" style="cursor: pointer;"><path id="kity_path_323" fill="white" stroke="gray" d="M1867.5,165.5A6,6,0,1,1,1855.5,165.5A6,6,0,1,1,1867.5,165.5"></path><path id="kity_path_324" fill="none" stroke="gray" d="M1857,165.5L1866,165.5"></path></g><path id="node_outline36" fill="none" stroke="none" d="M1794.5,171.5h134a5,5,0,0,1,5,5v12a5,5,0,0,1,-5,5h-134a5,5,0,0,1,-5,-5v-12a5,5,0,0,1,5,-5z"></path><g id="node_text36" fill="black"><text id="kity_text_175" text-rendering="inherit" font-size="12" dy=".8em" y="174.70000004768372" x="1799.5">$processor-&gt;handle()</text></g></g><g id="minder_node9"><g id="node_expander34" style="cursor: pointer;"><path id="kity_path_320" fill="white" stroke="gray" d="M1867.5,217.5A6,6,0,1,1,1855.5,217.5A6,6,0,1,1,1867.5,217.5"></path><path id="kity_path_321" fill="none" stroke="gray" d="M1857,217.5L1866,217.5"></path></g><path id="node_outline35" fill="none" stroke="none" d="M1769.5,223.5h184a5,5,0,0,1,5,5v17a5,5,0,0,1,-5,5h-184a5,5,0,0,1,-5,-5v-17a5,5,0,0,1,5,-5z"></path><g id="node_text35" fill="black"><text id="kity_text_173" text-rendering="inherit" font-size="12" dy=".8em" y="228.70000004768372" x="1774.5">循环$processors的handle()</text></g><g id="kity_g_181" style="cursor: pointer;"><path id="kity_path_182" fill="none" stroke="none" d="M1935,228h12a2,2,0,0,1,2,2v13a2,2,0,0,1,-2,2h-12a2,2,0,0,1,-2,-2v-13a2,2,0,0,1,2,-2z"></path><path id="kity_path_183" fill="black" stroke="none" d="M1944,239H1938V238h6L1944,239L1944,239zM1944,237H1938V236h6V237zM1944,235H1938V234h6V235zM1943.5,241H1937V232h8v7.5M1944,242l2,-2V231H1936v11"></path></g></g><g id="minder_node10"><g id="node_expander7" style="cursor: pointer;"><path id="kity_path_239" fill="white" stroke="gray" d="M759,274.5A6,6,0,1,1,747,274.5A6,6,0,1,1,759,274.5"></path><path id="kity_path_240" fill="none" stroke="gray" d="M748.5,274.5L757.5,274.5"></path></g><path id="node_outline8" fill="none" stroke="none" d="M679.5,280.5h147a5,5,0,0,1,5,5v12a5,5,0,0,1,-5,5h-147a5,5,0,0,1,-5,-5v-12a5,5,0,0,1,5,-5z"></path><g id="node_text8" fill="black"><text id="kity_text_115" text-rendering="inherit" font-size="12" dy=".8em" y="283.7000000476837" x="684.5">EnvProcessor-&gt;handle()</text></g></g><g id="minder_node11"><g id="node_expander6" display="none" style="cursor: pointer;"><path id="kity_path_236" fill="white" stroke="gray" d="M759,326.5A6,6,0,1,1,747,326.5A6,6,0,1,1,759,326.5"></path><path id="kity_path_237" fill="none" stroke="gray"></path></g><path id="node_outline7" fill="none" stroke="none" d="M723.5,332.5h59a5,5,0,0,1,5,5v12a5,5,0,0,1,-5,5h-59a5,5,0,0,1,-5,-5v-12a5,5,0,0,1,5,-5z"></path><g id="node_text7" fill="black"><text id="kity_text_113" text-rendering="inherit" font-size="12" dy=".8em" y="335.7000000476837" x="728.5">加载.env</text></g></g><g id="minder_node12"><g id="node_expander9" style="cursor: pointer;"><path id="kity_path_245" fill="white" stroke="gray" d="M1012,274.5A6,6,0,1,1,1000,274.5A6,6,0,1,1,1012,274.5"></path><path id="kity_path_246" fill="none" stroke="gray" d="M1001.5,274.5L1010.5,274.5"></path></g><path id="node_outline10" fill="none" stroke="none" d="M923.5,280.5h165a5,5,0,0,1,5,5v12a5,5,0,0,1,-5,5h-165a5,5,0,0,1,-5,-5v-12a5,5,0,0,1,5,-5z"></path><g id="node_text10" fill="black"><text id="kity_text_119" text-rendering="inherit" font-size="12" dy=".8em" y="283.7000000476837" x="928.5">ConfigProcessor-&gt;handle()</text></g></g><g id="minder_node13"><g id="node_expander8" display="none" style="cursor: pointer;"><path id="kity_path_242" fill="white" stroke="gray" d="M1012.5,326.5A6,6,0,1,1,1000.5,326.5A6,6,0,1,1,1012.5,326.5"></path><path id="kity_path_243" fill="none" stroke="gray"></path></g><path id="node_outline9" fill="none" stroke="none" d="M876.5,332.5h260a5,5,0,0,1,5,5v12a5,5,0,0,1,-5,5h-260a5,5,0,0,1,-5,-5v-12a5,5,0,0,1,5,-5z"></path><g id="node_text9" fill="black"><text id="kity_text_117" text-rendering="inherit" font-size="12" dy=".8em" y="335.7000000476837" x="881.5">定义2个常量：APP_DEBUG，SWOFT_DEBUG</text></g></g><g id="minder_node14"><g id="node_expander19" style="cursor: pointer;"><path id="kity_path_275" fill="white" stroke="gray" d="M1507,274.5A6,6,0,1,1,1495,274.5A6,6,0,1,1,1507,274.5"></path><path id="kity_path_276" fill="none" stroke="gray" d="M1496.5,274.5L1505.5,274.5"></path></g><path id="node_outline20" fill="none" stroke="none" d="M1404.5,280.5h193a5,5,0,0,1,5,5v12a5,5,0,0,1,-5,5h-193a5,5,0,0,1,-5,-5v-12a5,5,0,0,1,5,-5z"></path><g id="node_text20" fill="black"><text id="kity_text_140" text-rendering="inherit" font-size="12" dy=".8em" y="283.7000000476837" x="1409.5">AnnotationProcessor-&gt;handle()</text></g></g><g id="minder_node15"><g id="node_expander18" style="cursor: pointer;"><path id="kity_path_272" fill="white" stroke="gray" d="M1507.5,326.5A6,6,0,1,1,1495.5,326.5A6,6,0,1,1,1507.5,326.5"></path><path id="kity_path_273" fill="none" stroke="gray" d="M1497,326.5L1506,326.5"></path></g><path id="node_outline19" fill="none" stroke="none" d="M1471.5,332.5h60a5,5,0,0,1,5,5v12a5,5,0,0,1,-5,5h-60a5,5,0,0,1,-5,-5v-12a5,5,0,0,1,5,-5z"></path><g id="node_text19" fill="black"><text id="kity_text_138" text-rendering="inherit" font-size="12" dy=".8em" y="335.7000000476837" x="1476.5">注解解析</text></g></g><g id="minder_node16"><g id="node_expander17" style="cursor: pointer;"><path id="kity_path_269" fill="white" stroke="gray" d="M1507.5,378.5A6,6,0,1,1,1495.5,378.5A6,6,0,1,1,1507.5,378.5"></path><path id="kity_path_270" fill="none" stroke="gray" d="M1497,378.5L1506,378.5"></path></g><path id="node_outline18" fill="none" stroke="none" d="M1420.5,384.5h162a5,5,0,0,1,5,5v12a5,5,0,0,1,-5,5h-162a5,5,0,0,1,-5,-5v-12a5,5,0,0,1,5,-5z"></path><g id="node_text18" fill="black"><text id="kity_text_136" text-rendering="inherit" font-size="12" dy=".8em" y="387.7000000476837" x="1425.5">AnnotationRegister::load()</text></g></g><g id="minder_node17"><g id="node_expander11" style="cursor: pointer;"><path id="kity_path_251" fill="white" stroke="gray" d="M1335,430.5A6,6,0,1,1,1323,430.5A6,6,0,1,1,1335,430.5"></path><path id="kity_path_252" fill="none" stroke="gray" d="M1324.5,430.5L1333.5,430.5"></path></g><path id="node_outline12" fill="none" stroke="none" d="M1211.5,436.5h235a5,5,0,0,1,5,5v12a5,5,0,0,1,-5,5h-235a5,5,0,0,1,-5,-5v-12a5,5,0,0,1,5,-5z"></path><g id="node_text12" fill="black"><text id="kity_text_123" text-rendering="inherit" font-size="12" dy=".8em" y="439.7000000476837" x="1216.5">$resource = new AnnotationResource()</text></g></g><g id="minder_node18"><g id="node_expander10" display="none" style="cursor: pointer;"><path id="kity_path_248" fill="white" stroke="gray" d="M1335,482.5A6,6,0,1,1,1323,482.5A6,6,0,1,1,1335,482.5"></path><path id="kity_path_249" fill="none" stroke="gray"></path></g><path id="node_outline11" fill="none" stroke="none" d="M1187.5,488.5h283a5,5,0,0,1,5,5v12a5,5,0,0,1,-5,5h-283a5,5,0,0,1,-5,-5v-12a5,5,0,0,1,5,-5z"></path><g id="node_text11" fill="black"><text id="kity_text_121" text-rendering="inherit" font-size="12" dy=".8em" y="491.7000000476837" x="1192.5">$classLoader=Composer\Autoload\ClassLoader</text></g></g><g id="minder_node19"><g id="node_expander16" style="cursor: pointer;"><path id="kity_path_266" fill="white" stroke="gray" d="M1741.5,430.5A6,6,0,1,1,1729.5,430.5A6,6,0,1,1,1741.5,430.5"></path><path id="kity_path_267" fill="none" stroke="gray" d="M1731,430.5L1740,430.5"></path></g><path id="node_outline17" fill="none" stroke="none" d="M1678.5,436.5h114a5,5,0,0,1,5,5v12a5,5,0,0,1,-5,5h-114a5,5,0,0,1,-5,-5v-12a5,5,0,0,1,5,-5z"></path><g id="node_text17" fill="black"><text id="kity_text_134" text-rendering="inherit" font-size="12" dy=".8em" y="439.7000000476837" x="1683.5">$resource-&gt;load()</text></g></g><g id="minder_node20"><g id="node_expander15" style="cursor: pointer;"><path id="kity_path_263" fill="white" stroke="gray" d="M1742,482.5A6,6,0,1,1,1730,482.5A6,6,0,1,1,1742,482.5"></path><path id="kity_path_264" fill="none" stroke="gray" d="M1731.5,482.5L1740.5,482.5"></path></g><path id="node_outline16" fill="none" stroke="none" d="M1623.5,488.5h225a5,5,0,0,1,5,5v12a5,5,0,0,1,-5,5h-225a5,5,0,0,1,-5,-5v-12a5,5,0,0,1,5,-5z"></path><g id="node_text16" fill="black"><text id="kity_text_132" text-rendering="inherit" font-size="12" dy=".8em" y="491.7000000476837" x="1628.5">$this-&gt;loadAnnotation($autoLoader);</text></g></g><g id="minder_node21"><g id="node_expander14" style="cursor: pointer;"><path id="kity_path_260" fill="white" stroke="gray" d="M1742.5,534.5A6,6,0,1,1,1730.5,534.5A6,6,0,1,1,1742.5,534.5"></path><path id="kity_path_261" fill="none" stroke="gray" d="M1732,534.5L1741,534.5"></path></g><path id="node_outline15" fill="none" stroke="none" d="M1609.5,540.5h254a5,5,0,0,1,5,5v12a5,5,0,0,1,-5,5h-254a5,5,0,0,1,-5,-5v-12a5,5,0,0,1,5,-5z"></path><g id="node_text15" fill="black"><text id="kity_text_130" text-rendering="inherit" font-size="12" dy=".8em" y="543.7000000476837" x="1614.5">$this-&gt;parseAnnotation($ns, $className);</text></g></g><g id="minder_node22"><g id="node_expander13" style="cursor: pointer;"><path id="kity_path_257" fill="white" stroke="gray" d="M1742.5,586.5A6,6,0,1,1,1730.5,586.5A6,6,0,1,1,1742.5,586.5"></path><path id="kity_path_258" fill="none" stroke="gray" d="M1732,586.5L1741,586.5"></path></g><path id="node_outline14" fill="none" stroke="none" d="M1558.5,592.5h356a5,5,0,0,1,5,5v12a5,5,0,0,1,-5,5h-356a5,5,0,0,1,-5,-5v-12a5,5,0,0,1,5,-5z"></path><g id="node_text14" fill="black"><text id="kity_text_128" text-rendering="inherit" font-size="12" dy=".8em" y="595.7000000476837" x="1563.5">$reader=Doctrine\Common\Annotations\AnnotationReader</text></g></g><g id="minder_node23"><g id="node_expander12" display="none" style="cursor: pointer;"><path id="kity_path_254" fill="white" stroke="gray" d="M1742.5,649.5A6,6,0,1,1,1730.5,649.5A6,6,0,1,1,1742.5,649.5"></path><path id="kity_path_255" fill="none" stroke="gray"></path></g><path id="node_outline13" fill="none" stroke="none" d="M1521.5,655.5h430a5,5,0,0,1,5,5v30a5,5,0,0,1,-5,5h-430a5,5,0,0,1,-5,-5v-30a5,5,0,0,1,5,-5z"></path><g id="node_text13" fill="black"><text id="kity_text_125" text-rendering="inherit" font-size="12" dy=".8em" y="658.7000000476837" x="1526.5">AnnotationRegister::registerParser($annotationClass, $parserClassName);</text><text id="kity_text_126" text-rendering="inherit" font-size="12" dy=".8em" y="676.7000000476837" x="1526.5">注册注解解析器</text></g></g><g id="minder_node24"><g id="node_expander28" style="cursor: pointer;"><path id="kity_path_302" fill="white" stroke="gray" d="M2304,274.5A6,6,0,1,1,2292,274.5A6,6,0,1,1,2304,274.5"></path><path id="kity_path_303" fill="none" stroke="gray" d="M2293.5,274.5L2302.5,274.5"></path></g><path id="node_outline29" fill="none" stroke="none" d="M2220.5,280.5h155a5,5,0,0,1,5,5v12a5,5,0,0,1,-5,5h-155a5,5,0,0,1,-5,-5v-12a5,5,0,0,1,5,-5z"></path><g id="node_text29" fill="black"><text id="kity_text_161" text-rendering="inherit" font-size="12" dy=".8em" y="283.7000000476837" x="2225.5">BeanProcessor-&gt;handle()</text></g></g><g id="minder_node25"><g id="node_expander27" style="cursor: pointer;"><path id="kity_path_299" fill="white" stroke="gray" d="M2304.5,326.5A6,6,0,1,1,2292.5,326.5A6,6,0,1,1,2304.5,326.5"></path><path id="kity_path_300" fill="none" stroke="gray" d="M2294,326.5L2303,326.5"></path></g><path id="node_outline28" fill="none" stroke="none" d="M2266.5,332.5h64a5,5,0,0,1,5,5v12a5,5,0,0,1,-5,5h-64a5,5,0,0,1,-5,-5v-12a5,5,0,0,1,5,-5z"></path><g id="node_text28" fill="black"><text id="kity_text_159" text-rendering="inherit" font-size="12" dy=".8em" y="335.7000000476837" x="2271.5">bean管理</text></g></g><g id="minder_node26"><g id="node_expander26" style="cursor: pointer;"><path id="kity_path_296" fill="white" stroke="gray" d="M2305,378.5A6,6,0,1,1,2293,378.5A6,6,0,1,1,2305,378.5"></path><path id="kity_path_297" fill="none" stroke="gray" d="M2294.5,378.5L2303.5,378.5"></path></g><path id="node_outline27" fill="none" stroke="none" d="M2194.5,384.5h209a5,5,0,0,1,5,5v30a5,5,0,0,1,-5,5h-209a5,5,0,0,1,-5,-5v-30a5,5,0,0,1,5,-5z"></path><g id="node_text27" fill="black"><text id="kity_text_156" text-rendering="inherit" font-size="12" dy=".8em" y="387.7000000476837" x="2199.5">BeanFactory::addParsers($parsers);</text><text id="kity_text_157" text-rendering="inherit" font-size="12" dy=".8em" y="405.7000000476837" x="2199.5">导入注解解析器</text></g></g><g id="minder_node27"><g id="node_expander25" style="cursor: pointer;"><path id="kity_path_293" fill="white" stroke="gray" d="M2305.5,448.5A6,6,0,1,1,2293.5,448.5A6,6,0,1,1,2305.5,448.5"></path><path id="kity_path_294" fill="none" stroke="gray" d="M2295,448.5L2304,448.5"></path></g><path id="node_outline26" fill="none" stroke="none" d="M2243.5,454.5h112a5,5,0,0,1,5,5v12a5,5,0,0,1,-5,5h-112a5,5,0,0,1,-5,-5v-12a5,5,0,0,1,5,-5z"></path><g id="node_text26" fill="black"><text id="kity_text_154" text-rendering="inherit" font-size="12" dy=".8em" y="457.7000000476837" x="2248.5">BeanFactory::init()</text></g></g><g id="minder_node28"><g id="node_expander24" style="cursor: pointer;"><path id="kity_path_290" fill="white" stroke="gray" d="M2305.5,500.5A6,6,0,1,1,2293.5,500.5A6,6,0,1,1,2305.5,500.5"></path><path id="kity_path_291" fill="none" stroke="gray" d="M2295,500.5L2304,500.5"></path></g><path id="node_outline25" fill="none" stroke="none" d="M2204.5,506.5h190a5,5,0,0,1,5,5v12a5,5,0,0,1,-5,5h-190a5,5,0,0,1,-5,-5v-12a5,5,0,0,1,5,-5z"></path><g id="node_text25" fill="black"><text id="kity_text_152" text-rendering="inherit" font-size="12" dy=".8em" y="509.7000000476837" x="2209.5">Container::getInstance()-&gt;init();</text></g></g><g id="minder_node29"><g id="node_expander21" style="cursor: pointer;"><path id="kity_path_281" fill="white" stroke="gray" d="M2102,552.5A6,6,0,1,1,2090,552.5A6,6,0,1,1,2102,552.5"></path><path id="kity_path_282" fill="none" stroke="gray" d="M2091.5,552.5L2100.5,552.5"></path></g><path id="node_outline22" fill="none" stroke="none" d="M2001.5,558.5h189a5,5,0,0,1,5,5v12a5,5,0,0,1,-5,5h-189a5,5,0,0,1,-5,-5v-12a5,5,0,0,1,5,-5z"></path><g id="node_text22" fill="black"><text id="kity_text_144" text-rendering="inherit" font-size="12" dy=".8em" y="561.7000000476837" x="2006.5">$handler     = new BeanHandler();</text></g></g><g id="minder_node30"><g id="node_expander20" display="none" style="cursor: pointer;"><path id="kity_path_278" fill="white" stroke="gray" d="M2102.5,604.5A6,6,0,1,1,2090.5,604.5A6,6,0,1,1,2102.5,604.5"></path><path id="kity_path_279" fill="none" stroke="gray"></path></g><path id="node_outline21" fill="none" stroke="none" d="M2050.5,610.5h92a5,5,0,0,1,5,5v12a5,5,0,0,1,-5,5h-92a5,5,0,0,1,-5,-5v-12a5,5,0,0,1,5,-5z"></path><g id="node_text21" fill="black"><text id="kity_text_142" text-rendering="inherit" font-size="12" dy=".8em" y="613.7000000476837" x="2055.5">Aop::register()</text></g></g><g id="minder_node31"><g id="node_expander22" display="none" style="cursor: pointer;"><path id="kity_path_284" fill="white" stroke="gray" d="M2328.5,552.5A6,6,0,1,1,2316.5,552.5A6,6,0,1,1,2328.5,552.5"></path><path id="kity_path_285" fill="none" stroke="gray"></path></g><path id="node_outline23" fill="none" stroke="none" d="M2240.5,558.5h164a5,5,0,0,1,5,5v30a5,5,0,0,1,-5,5h-164a5,5,0,0,1,-5,-5v-30a5,5,0,0,1,5,-5z"></path><g id="node_text23" fill="black"><text id="kity_text_146" text-rendering="inherit" font-size="12" dy=".8em" y="561.7000000476837" x="2245.5">$this-&gt;parseAnnotations();</text><text id="kity_text_147" text-rendering="inherit" font-size="12" dy=".8em" y="579.7000000476837" x="2245.5">注解解析器开始解析注解</text></g></g><g id="minder_node32"><g id="node_expander23" display="none" style="cursor: pointer;"><path id="kity_path_287" fill="white" stroke="gray" d="M2532.5,552.5A6,6,0,1,1,2520.5,552.5A6,6,0,1,1,2532.5,552.5"></path><path id="kity_path_288" fill="none" stroke="gray"></path></g><path id="node_outline24" fill="none" stroke="none" d="M2454.5,558.5h144a5,5,0,0,1,5,5v30a5,5,0,0,1,-5,5h-144a5,5,0,0,1,-5,-5v-30a5,5,0,0,1,5,-5z"></path><g id="node_text24" fill="black"><text id="kity_text_149" text-rendering="inherit" font-size="12" dy=".8em" y="561.7000000476837" x="2459.5">$this-&gt;initializeBeans();</text><text id="kity_text_150" text-rendering="inherit" font-size="12" dy=".8em" y="579.7000000476837" x="2459.5">初始化bean</text></g></g><g id="minder_node33"><g id="node_expander30" style="cursor: pointer;"><path id="kity_path_308" fill="white" stroke="gray" d="M2731.5,274.5A6,6,0,1,1,2719.5,274.5A6,6,0,1,1,2731.5,274.5"></path><path id="kity_path_309" fill="none" stroke="gray" d="M2721,274.5L2730,274.5"></path></g><path id="node_outline31" fill="none" stroke="none" d="M2646.5,280.5h158a5,5,0,0,1,5,5v12a5,5,0,0,1,-5,5h-158a5,5,0,0,1,-5,-5v-12a5,5,0,0,1,5,-5z"></path><g id="node_text31" fill="black"><text id="kity_text_165" text-rendering="inherit" font-size="12" dy=".8em" y="283.7000000476837" x="2651.5">EventProcessor-&gt;handle()</text></g></g><g id="minder_node34"><g id="node_expander29" display="none" style="cursor: pointer;"><path id="kity_path_305" fill="white" stroke="gray" d="M2732,326.5A6,6,0,1,1,2720,326.5A6,6,0,1,1,2732,326.5"></path><path id="kity_path_306" fill="none" stroke="gray"></path></g><path id="node_outline30" fill="none" stroke="none" d="M2696.5,332.5h59a5,5,0,0,1,5,5v12a5,5,0,0,1,-5,5h-59a5,5,0,0,1,-5,-5v-12a5,5,0,0,1,5,-5z"></path><g id="node_text30" fill="black"><text id="kity_text_163" text-rendering="inherit" font-size="12" dy=".8em" y="335.7000000476837" x="2701.5">事件管理</text></g></g><g id="minder_node35"><g id="node_expander33" style="cursor: pointer;"><path id="kity_path_317" fill="white" stroke="gray" d="M2963,274.5A6,6,0,1,1,2951,274.5A6,6,0,1,1,2963,274.5"></path><path id="kity_path_318" fill="none" stroke="gray" d="M2952.5,274.5L2961.5,274.5"></path></g><path id="node_outline34" fill="none" stroke="none" d="M2870.5,280.5h173a5,5,0,0,1,5,5v12a5,5,0,0,1,-5,5h-173a5,5,0,0,1,-5,-5v-12a5,5,0,0,1,5,-5z"></path><g id="node_text34" fill="black"><text id="kity_text_171" text-rendering="inherit" font-size="12" dy=".8em" y="283.7000000476837" x="2875.5">ConsoleProcessor-&gt;handle()</text></g></g><g id="minder_node36"><g id="node_expander32" style="cursor: pointer;"><path id="kity_path_314" fill="white" stroke="gray" d="M2963.5,326.5A6,6,0,1,1,2951.5,326.5A6,6,0,1,1,2963.5,326.5"></path><path id="kity_path_315" fill="none" stroke="gray" d="M2953,326.5L2962,326.5"></path></g><path id="node_outline33" fill="none" stroke="none" d="M2921.5,332.5h72a5,5,0,0,1,5,5v12a5,5,0,0,1,-5,5h-72a5,5,0,0,1,-5,-5v-12a5,5,0,0,1,5,-5z"></path><g id="node_text33" fill="black"><text id="kity_text_169" text-rendering="inherit" font-size="12" dy=".8em" y="335.7000000476837" x="2926.5">启动控制台</text></g></g><g id="minder_node37"><g id="node_expander31" display="none" style="cursor: pointer;"><path id="kity_path_311" fill="white" stroke="gray" d="M2963.5,378.5A6,6,0,1,1,2951.5,378.5A6,6,0,1,1,2963.5,378.5"></path><path id="kity_path_312" fill="none" stroke="gray"></path></g><path id="node_outline32" fill="none" stroke="none" d="M2854.5,384.5h206a5,5,0,0,1,5,5v12a5,5,0,0,1,-5,5h-206a5,5,0,0,1,-5,-5v-12a5,5,0,0,1,5,-5z"></path><g id="node_text32" fill="black"><text id="kity_text_167" text-rendering="inherit" font-size="12" dy=".8em" y="387.7000000476837" x="2859.5">Swoft\Console\Application-&gt;run()</text></g></g></g></g></svg>